# File created by Blade
# Date/Time:  Tue Jan 27 17:01:38 2015
# Frame Rate: 120.000 fps
#------------------------------------------------------
:FULLY-SPECIFIED
:DEGREES
3744
root -0.300522 36.933829 5.735012 8.262907 2.951013 0.275965
Spine -8.709243 7.772830 0.074031
Head -1.931877 -0.797626 -0.448789
LeftShoulder -8.168006 -13.606159 17.434423
LeftArm -0.068231 -28.445244 -19.986652
LeftForeArm 27.228827 -0.000000 5.422521
LeftHand -14.954328 -0.000000 -17.796227
LeftHandThumb1 -26.253704 0.000000 33.147579
RightShoulder -8.278645 -7.703745 -19.017179
RightArm -0.001083 37.840878 22.796341
RightForeArm -177.414141 0.000000 13.517394
RightHand 1.110357 0.000000 0.413525
RightHandThumb1 -24.326973 -0.000000 -32.862282
LeftUpLeg -5.704750 11.185477 2.737711
LeftLeg 8.282695 -0.000000 -0.000000
LeftFoot -16.585489 2.872980 -20.157222
LeftToeBase 14.781737 -0.000000 -0.000000
RightUpLeg -6.660042 -10.135793 -2.543562
RightLeg 10.621931 -0.000000 -0.000000
RightFoot -16.857376 -6.117986 15.710823
RightToeBase 10.942444 -0.000000 -0.000000
3745
root -0.304446 36.933862 5.732465 8.287440 2.941524 0.271677
Spine -8.716937 7.757322 0.025706
Head -2.041564 -0.759298 -0.473220
LeftShoulder -8.145430 -13.659287 17.440621
LeftArm -0.181812 -28.412930 -19.921219
LeftForeArm 27.184991 -0.000000 5.462580
LeftHand -14.933064 -0.000000 -17.526228
LeftHandThumb1 -26.253704 0.000000 33.147579
RightShoulder -8.281351 -7.694133 -19.013308
RightArm -0.053571 37.876995 22.818258
RightForeArm -177.407824 -0.000000 13.474516
RightHand 1.231847 -0.000000 0.324795
RightHandThumb1 -24.326973 -0.000000 -32.862282
LeftUpLeg -5.729308 11.181294 2.741999
LeftLeg 8.273581 -0.000000 -0.000000
LeftFoot -16.579743 2.883880 -20.161647
LeftToeBase 14.768672 -0.000000 -0.000000
RightUpLeg -6.687085 -10.141533 -2.529072
RightLeg 10.612587 -0.000000 -0.000000
RightFoot -16.833730 -6.121578 15.672587
RightToeBase 10.886354 -0.000000 -0.000000
3746
root -0.307673 36.934068 5.729578 8.314615 2.926412 0.264501
Spine -8.725707 7.755482 -0.016148
Head -2.136822 -0.765703 -0.482070
LeftShoulder -8.155919 -13.644637 17.442003
LeftArm -0.213673 -28.427857 -19.907235
LeftForeArm 27.114557 -0.000000 5.514475
LeftHand -14.911050 -0.000000 -17.296765
LeftHandThumb1 -26.253704 0.000000 33.147579
RightShoulder -8.295152 -7.690019 -19.006513
RightArm -0.091935 37.920400 22.836018
RightForeArm -177.368860 -0.000000 13.431550
RightHand 1.233892 -0.000000 0.227304
RightHandThumb1 -24.326973 -0.000000 -32.862282
LeftUpLeg -5.756462 11.170928 2.746917
LeftLeg 8.268996 -0.000000 -0.000000
LeftFoot -16.585771 2.906922 -20.170709
LeftToeBase 14.776539 -0.000000 -0.000000
RightUpLeg -6.719493 -10.140909 -2.513254
RightLeg 10.604942 -0.000000 -0.000000
RightFoot -16.823248 -6.108646 15.654976
RightToeBase 10.903784 -0.000000 -0.000000
3747
root -0.310831 36.934604 5.727359 8.336952 2.915192 0.252851
Spine -8.730056 7.748381 -0.048736
Head -2.228569 -0.796178 -0.486395
LeftShoulder -8.192963 -13.622639 17.444180
LeftArm -0.206926 -28.468930 -19.919809
LeftForeArm 27.116772 -0.000000 5.573658
LeftHand -14.898519 -0.000000 -17.041939
LeftHandThumb1 -26.253704 0.000000 33.147579
RightShoulder -8.308857 -7.693978 -19.007893
RightArm -0.125825 37.974327 22.855053
RightForeArm -177.424194 -0.000000 13.382473
RightHand 1.254643 -0.000000 0.194405
RightHandThumb1 -24.326973 -0.000000 -32.862282
LeftUpLeg -5.788189 11.192140 2.752908
LeftLeg 8.279929 -0.000000 -0.000000
LeftFoot -16.587446 2.922008 -20.158177
LeftToeBase 14.753997 -0.000000 -0.000000
RightUpLeg -6.745034 -10.154556 -2.493119
RightLeg 10.598570 -0.000000 -0.000000
RightFoot -16.810279 -6.081956 15.647217
RightToeBase 10.926937 -0.000000 -0.000000
3748
root -0.313315 36.935187 5.725059 8.363103 2.903966 0.251053
Spine -8.736051 7.731445 -0.086578
Head -2.319784 -0.800834 -0.530875
LeftShoulder -8.179327 -13.689985 17.441108
LeftArm -0.309701 -28.467382 -19.855247
LeftForeArm 27.182036 -0.000000 5.626177
LeftHand -14.880761 -0.000000 -16.777348
LeftHandThumb1 -26.253704 0.000000 33.147579
RightShoulder -8.311875 -7.694705 -19.029008
RightArm -0.170500 38.035497 22.892941
RightForeArm -177.470531 0.000000 13.353889
RightHand 1.290905 -0.000000 0.123733
RightHandThumb1 -24.326973 -0.000000 -32.862282
LeftUpLeg -5.806559 11.173971 2.754232
LeftLeg 8.260989 -0.000000 -0.000000
LeftFoot -16.582198 2.947044 -20.160169
LeftToeBase 14.756709 -0.000000 -0.000000
RightUpLeg -6.773619 -10.174406 -2.481014
RightLeg 10.588553 -0.000000 -0.000000
RightFoot -16.800297 -6.068744 15.628111
RightToeBase 10.955960 -0.000000 -0.000000
3749
root -0.316172 36.935318 5.723296 8.391980 2.891642 0.243742
Spine -8.747444 7.729714 -0.127367
Head -2.402734 -0.797157 -0.553114
LeftShoulder -8.182597 -13.709740 17.446288
LeftArm -0.345294 -28.423682 -19.834544
LeftForeArm 27.193076 -0.000000 5.673440
LeftHand -14.866592 -0.000000 -16.489044
LeftHandThumb1 -26.253704 0.000000 33.147579
RightShoulder -8.338679 -7.691163 -19.032644
RightArm -0.198602 38.061591 22.915006
RightForeArm -177.442408 -0.000000 13.308972
RightHand 1.374923 -0.000000 -0.106946
RightHandThumb1 -24.326973 -0.000000 -32.862282
LeftUpLeg -5.833096 11.179018 2.758192
LeftLeg 8.250503 -0.000000 -0.000000
LeftFoot -16.588455 2.943767 -20.194256
LeftToeBase 14.781539 -0.000000 -0.000000
RightUpLeg -6.799551 -10.173163 -2.467347
RightLeg 10.575448 -0.000000 -0.000000
RightFoot -16.768869 -6.081461 15.595141
RightToeBase 10.887456 -0.000000 -0.000000
3750
root -0.318945 36.935730 5.721958 8.405197 2.878165 0.233571
Spine -8.739494 7.725418 -0.157498
Head -2.471364 -0.813666 -0.569773
LeftShoulder -8.185432 -13.729600 17.443190
LeftArm -0.386493 -28.400482 -19.807645
LeftForeArm 27.197946 -0.000000 5.739839
LeftHand -14.894306 0.000000 -16.223193
LeftHandThumb1 -26.253704 0.000000 33.147579
RightShoulder -8.351063 -7.664183 -19.052061
RightArm -0.248051 38.093022 22.933968
RightForeArm -177.455335 -0.000000 13.261955
RightHand 1.427419 -0.000000 -0.155216
RightHandThumb1 -24.326973 -0.000000 -32.862282
LeftUpLeg -5.842997 11.161460 2.768452
LeftLeg 8.241010 -0.000000 -0.000000
LeftFoot -16.586017 2.989515 -20.166447
LeftToeBase 14.742890 -0.000000 -0.000000
RightUpLeg -6.812392 -10.177531 -2.452223
RightLeg 10.563741 -0.000000 -0.000000
RightFoot -16.756103 -6.055730 15.601398
RightToeBase 10.880985 -0.000000 -0.000000
3751
root -0.321002 36.936055 5.720696 8.435077 2.853914 0.228797
Spine -8.755691 7.736574 -0.206853
Head -2.551709 -0.782050 -0.605770
LeftShoulder -8.185811 -13.708525 17.450506
LeftArm -0.389885 -28.372349 -19.798228
LeftForeArm 27.156987 -0.000000 5.771170
LeftHand -14.902686 -0.000000 -15.934608
LeftHandThumb1 -26.253704 0.000000 33.147579
RightShoulder -8.381819 -7.672826 -19.040564
RightArm -0.256068 38.144313 22.948075
RightForeArm -177.497936 -0.000000 13.219082
RightHand 1.542090 -0.000000 -0.193869
RightHandThumb1 -24.326973 -0.000000 -32.862282
LeftUpLeg -5.868247 11.183769 2.765693
LeftLeg 8.231227 -0.000000 -0.000000
LeftFoot -16.580149 2.999811 -20.169394
LeftToeBase 14.740069 -0.000000 -0.000000
RightUpLeg -6.844182 -10.177069 -2.437622
RightLeg 10.551528 -0.000000 -0.000000
RightFoot -16.749966 -6.060127 15.580036
RightToeBase 10.921580 -0.000000 -0.000000
3752
root -0.323348 36.936194 5.720322 8.450439 2.843415 0.216864
Spine -8.756489 7.726964 -0.237806
Head -2.605318 -0.780731 -0.616928
LeftShoulder -8.193689 -13.739133 17.468234
LeftArm -0.418033 -28.338797 -19.785982
LeftForeArm 27.169488 -0.000000 5.805099
LeftHand -14.920917 -0.000000 -15.637260
LeftHandThumb1 -26.253704 0.000000 33.147579
RightShoulder -8.375680 -7.657145 -19.050356
RightArm -0.315523 38.140582 22.945499
RightForeArm -177.415124 -0.000000 13.191204
RightHand 1.621259 0.000000 -0.244701
RightHandThumb1 -24.326973 -0.000000 -32.862282
LeftUpLeg -5.880820 11.180976 2.777140
LeftLeg 8.227325 -0.000000 -0.000000
LeftFoot -16.597547 3.000300 -20.198588
LeftToeBase 14.764966 -0.000000 -0.000000
RightUpLeg -6.854411 -10.192112 -2.420969
RightLeg 10.528235 -0.000000 -0.000000
RightFoot -16.733862 -6.000855 15.600375
RightToeBase 10.930200 -0.000000 -0.000000
3753
root -0.325478 36.936550 5.719717 8.467611 2.830849 0.207375
Spine -8.756056 7.725793 -0.270311
Head -2.663153 -0.799957 -0.628140
LeftShoulder -8.187041 -13.712034 17.446841
LeftArm -0.407155 -28.339582 -19.756221
LeftForeArm 27.246803 -0.000000 5.813652
LeftHand -14.897914 -0.000000 -15.334975
LeftHandThumb1 -26.253704 0.000000 33.147579
RightShoulder -8.394967 -7.665243 -19.062807
RightArm -0.349772 38.153286 22.957315
RightForeArm -177.397625 -0.000000 13.156105
RightHand 1.663147 -0.000000 -0.321927
RightHandThumb1 -24.326973 -0.000000 -32.862282
LeftUpLeg -5.892376 11.174653 2.785634
LeftLeg 8.215229 -0.000000 -0.000000
LeftFoot -16.602118 3.013008 -20.214985
LeftToeBase 14.772594 -0.000000 -0.000000
RightUpLeg -6.871081 -10.191172 -2.405643
RightLeg 10.518852 -0.000000 -0.000000
RightFoot -16.724247 -5.988439 15.583120
RightToeBase 10.949622 -0.000000 -0.000000
